<svg width="172" height="172" viewBox="0 0 172 172" fill="none" xmlns="http://www.w3.org/2000/svg">
<g clip-path="url(#clip0_1272_1712)">
<path d="M164.426 87.1862C165.077 43.8723 130.491 8.23232 87.1769 7.58214C43.8629 6.93196 8.22295 41.5178 7.57277 84.8317C6.92259 128.146 41.5084 163.786 84.8223 164.436C128.136 165.086 163.776 130.5 164.426 87.1862Z" fill="#67E0D9"/>
<path d="M85.995 172C38.5746 172 0 133.415 0 85.995C0 38.5746 38.5746 0 85.995 0C133.415 0 171.99 38.5746 171.99 85.995C171.99 133.415 133.415 171.99 85.995 171.99V172ZM85.995 15.1287C46.9218 15.1287 15.1287 46.9218 15.1287 85.995C15.1287 125.068 46.9218 156.871 86.005 156.871C125.088 156.871 156.881 125.078 156.881 85.995C156.881 46.9118 125.078 15.1287 85.995 15.1287Z" fill="#0C849C"/>
<mask id="mask0_1272_1712" style="mask-type:luminance" maskUnits="userSpaceOnUse" x="14" y="14" width="144" height="144">
<path d="M112.254 152.692C148.922 138.359 167.028 97.0147 152.695 60.3468C138.362 23.6789 97.0172 5.5729 60.3492 19.906C23.6813 34.2391 5.57534 75.5836 19.9084 112.252C34.2416 148.92 75.5861 167.025 112.254 152.692Z" fill="white"/>
</mask>
<g mask="url(#mask0_1272_1712)">
<path d="M152.184 122.096C152.184 122.096 141.055 111.884 116.183 108.404C117.499 103.896 118.028 99.1988 118.197 94.4917C123.323 94.1925 123.832 86.7528 124.799 82.7937C125.607 78.4854 126.874 70.0285 120.312 70.0186C120.172 70.0285 120.042 70.0884 119.903 70.1083C119.813 68.2434 119.643 66.4583 119.274 64.8627C119.254 64.7629 119.225 64.6632 119.195 64.5635C117.998 53.035 113.41 44.3188 104.535 38.8836C98.7206 34.376 91.2909 31.8927 82.1459 31.8728H82.086C75.1949 31.8728 67.1269 34.5754 60.7144 39.9707C55.9774 43.9498 52.1778 49.4548 50.5123 56.3858C48.6873 61.5717 47.7798 67.2362 47.4706 73.0403C47.2512 73.0004 47.0318 72.9206 46.8124 72.9206C46.5332 72.9206 46.244 72.9506 45.9448 73.0303H45.9348C44.9276 73.2797 44.1397 73.9777 43.7209 74.8653C43.292 75.7529 43.1424 76.8 43.1424 77.9768C43.1424 80.1708 43.671 82.8734 44.4389 85.9151C45.1769 88.8671 46.0146 91.6195 47.0518 93.7138C47.5305 94.6712 48.049 95.479 48.6574 96.1372C48.807 103.347 51.0508 111.386 54.9801 117.778C55.1796 118.127 55.4189 118.436 55.6283 118.775C40.0409 129.376 27.9141 144.176 27.9141 144.176C29.1008 149.402 45.5259 159.504 66.369 164.5C67.845 165.518 68.9818 166.276 69.4705 166.575L69.6799 166.236C69.301 166.006 68.4832 165.458 67.4361 164.74C69.64 165.248 71.8839 165.697 74.1677 166.076C73.7189 168.28 73.3998 170.504 73.3399 172.688C76.98 177.754 89.5357 177.415 95.5891 172.04C96.9255 171.78 97.3743 171.551 97.3942 171.541L97.464 171.501L97.4939 171.421C97.4939 171.421 98.0524 169.756 98.93 166.944C103.198 166.485 107.427 165.657 111.546 164.411L110.588 166.295L110.947 166.475L112.074 164.261C128.978 158.995 144.057 146.51 152.214 122.076L152.184 122.096Z" fill="#0C849C"/>
<path d="M152.184 122.096L153.431 120.74C153.221 120.551 141.733 110.119 116.432 106.589L116.173 108.414L117.938 108.932C119.314 104.225 119.853 99.3784 120.022 94.5616L118.187 94.5017L118.297 96.3367C119.155 96.2869 119.972 96.0774 120.69 95.7384C121.957 95.14 122.904 94.1627 123.592 93.0956C124.62 91.49 125.178 89.645 125.597 87.8798C126.016 86.1246 126.285 84.4293 126.574 83.2425L126.594 83.1428C126.903 81.4973 127.292 79.2334 127.292 76.9198C127.292 75.9424 127.222 74.9551 127.033 73.9878C126.744 72.5517 126.175 71.1057 125.028 69.9688C124.46 69.4103 123.752 68.9515 122.954 68.6424C122.146 68.3432 121.259 68.1936 120.301 68.1936H120.132C119.863 68.2235 119.683 68.2834 119.603 68.3033L119.543 68.3233L119.723 69.0513L119.613 68.3133H119.543L119.723 69.0513L119.613 68.3133L119.893 70.1283L121.727 70.0386C121.638 68.1138 121.458 66.229 121.049 64.4638C121.009 64.2743 120.98 64.1846 120.97 64.1646L119.174 64.5835L120.999 64.394C120.381 58.4403 118.875 53.1248 116.322 48.5672C113.769 43.9997 110.159 40.2101 105.472 37.3379L104.515 38.9037L105.641 37.4476C99.4883 32.6607 91.5998 30.0578 82.1257 30.0479V31.8828L82.2254 30.0479H82.1656H82.0659C74.696 30.0678 66.289 32.9001 59.5175 38.5845C54.5112 42.7831 50.4722 48.6371 48.717 55.977L50.5021 56.4058L48.7669 55.7975C46.872 61.1927 45.9346 67.0368 45.6254 72.9706L47.4604 73.0703L47.7895 71.2652C47.7895 71.2652 47.6998 71.2453 47.5402 71.2054C47.3807 71.1655 47.1413 71.1156 46.8321 71.1156H46.8022C46.3734 71.1156 45.9246 71.1655 45.4659 71.2852L45.9346 73.0603L47.7197 72.6215C47.6001 72.1329 47.271 71.704 46.8321 71.4547C46.3933 71.2054 45.8648 71.1555 45.3761 71.3051H45.3662L45.9246 73.0603L45.4858 71.2752C44.6581 71.4747 44.0797 72.2126 44.0797 73.0603H45.9147L45.4858 71.2752C43.9002 71.6641 42.6735 72.7611 42.0452 74.1075L43.7107 74.8853L42.0552 74.0875C41.4469 75.3441 41.2973 76.6705 41.2973 77.9869C41.2973 80.4701 41.8757 83.2824 42.6436 86.3739C43.4015 89.3757 44.2592 92.2279 45.3861 94.5416C45.9147 95.6187 46.533 96.5761 47.2809 97.3938L48.6272 96.1472L46.7923 96.1871C46.9518 103.746 49.2655 112.044 53.3942 118.745L54.9599 117.778L53.3543 118.686C53.6435 119.184 53.9128 119.523 54.0624 119.773L55.6082 118.785L54.571 117.27C38.7044 128.06 26.5276 142.959 26.4678 143.019C26.1088 143.458 25.9692 144.036 26.0988 144.595C26.3382 145.632 26.8667 146.55 27.5748 147.477C28.8114 149.083 30.6464 150.708 33.0099 152.394C36.5602 154.917 41.2973 157.549 46.902 159.983C52.5066 162.416 58.959 164.63 65.91 166.296L66.3388 164.51L65.3017 166.026C66.0397 166.535 66.6979 166.984 67.2364 167.343C67.7749 167.702 68.1838 167.971 68.483 168.15C69.3506 168.679 70.4775 168.41 71.0061 167.552L71.2155 167.213C71.4748 166.794 71.5546 166.296 71.4349 165.817C71.3252 165.338 71.026 164.929 70.6072 164.68C70.4576 164.59 70.1684 164.401 69.7994 164.151C69.4204 163.902 68.9617 163.593 68.4431 163.234L67.4059 164.75L66.997 166.545C69.2309 167.063 71.5147 167.512 73.8384 167.901L74.1375 166.086L72.3424 165.717C71.8737 167.991 71.5446 170.325 71.4848 172.658C71.4748 173.057 71.5945 173.456 71.8338 173.785C72.9907 175.391 74.706 176.458 76.6208 177.146C78.5455 177.834 80.6996 178.143 82.9335 178.143C85.3868 178.143 87.9298 177.754 90.3233 176.986C92.7168 176.208 94.9606 175.052 96.7956 173.436L95.5789 172.06L95.928 173.865C96.656 173.725 97.1646 173.586 97.5236 173.476C97.7031 173.416 97.8428 173.366 97.9525 173.326L98.0921 173.266L98.1419 173.247H98.1519L97.4738 171.781L98.132 173.247H98.1519L97.4738 171.781L98.132 173.247L98.2616 173.187L98.3314 173.147C98.7403 172.927 99.0395 172.558 99.1891 172.13L99.219 172.05L99.2689 171.89L97.4937 171.461L99.2489 171.98L99.2689 171.89L97.4937 171.461L99.2489 171.98L97.4837 171.461L99.229 172.02V171.98L97.4837 171.461L99.229 172.02L97.753 171.541L99.229 172.03C99.2489 171.96 99.8074 170.295 100.675 167.532L98.9198 166.984L99.1193 168.809C103.487 168.34 107.825 167.492 112.074 166.216L111.545 164.461L109.91 163.633L108.952 165.518C108.733 165.956 108.693 166.455 108.843 166.924C108.992 167.393 109.321 167.772 109.76 167.991L110.119 168.17C111.027 168.629 112.134 168.27 112.592 167.363L113.719 165.149L112.084 164.321L112.632 166.076C121.329 163.374 129.606 158.776 136.727 151.725C143.857 144.675 149.811 135.171 153.959 122.725C154.189 122.036 153.989 121.279 153.461 120.79L152.214 122.146L150.469 121.568C146.47 133.545 140.805 142.511 134.134 149.122C127.452 155.734 119.743 160.023 111.525 162.576C111.047 162.725 110.658 163.054 110.428 163.503L109.301 165.717L110.937 166.545L111.765 164.899L111.406 164.72L110.578 166.365L112.213 167.193L113.171 165.308C113.5 164.65 113.41 163.862 112.941 163.294C112.463 162.725 111.705 162.506 111.007 162.715C106.998 163.922 102.879 164.73 98.7204 165.179C97.9923 165.258 97.384 165.757 97.1646 166.455C96.7258 167.851 96.3668 168.968 96.1274 169.726C96.0078 170.105 95.908 170.404 95.8382 170.594C95.8083 170.694 95.7784 170.763 95.7684 170.813L95.7485 170.873V170.893V170.913V170.933L95.7385 170.953L95.7186 171.043L97.5037 171.481L95.7684 170.893L95.7385 170.973L97.4738 171.561L96.5962 169.946L96.5264 169.985L97.404 171.601L96.656 169.926H96.6261L96.7158 170.135L96.6261 169.936L96.656 169.995L96.6361 169.936L96.666 169.995L96.646 169.936C96.646 169.936 96.2272 170.105 95.2598 170.295C94.9307 170.354 94.6415 170.504 94.3922 170.723C93.0459 171.92 91.2408 172.878 89.2363 173.526C87.2318 174.174 85.0377 174.503 82.9734 174.503C81.0885 174.503 79.3134 174.224 77.8973 173.715C76.4712 173.207 75.434 172.479 74.8556 171.671L73.3597 172.748L75.1946 172.798C75.2545 170.743 75.5437 168.629 75.9825 166.505C76.0822 166.016 75.9825 165.508 75.6933 165.089C75.4141 164.68 74.9653 164.401 74.4766 164.321C72.2327 163.952 70.0288 163.513 67.8547 163.015C66.997 162.815 66.1095 163.264 65.7604 164.072C65.4114 164.879 65.6806 165.827 66.4087 166.325C66.9372 166.684 67.4059 167.004 67.7949 167.263C68.1838 167.522 68.493 167.722 68.7323 167.871L69.6897 166.306L68.124 165.338L67.9145 165.677L69.4803 166.645L70.4376 165.079C70.2382 164.959 69.8393 164.7 69.3207 164.351C68.8021 164.002 68.1539 163.563 67.4159 163.054C67.2364 162.935 67.017 162.835 66.8076 162.785C56.5556 160.332 47.3707 156.602 40.679 152.892C37.3281 151.037 34.6056 149.182 32.7107 147.537C31.7633 146.719 31.0253 145.951 30.5267 145.293C30.0181 144.645 29.7787 144.106 29.7189 143.837L27.9238 144.246L29.3499 145.413L29.3798 145.373C30.038 144.565 41.8458 130.444 56.6753 120.371C57.503 119.813 57.7324 118.696 57.1938 117.858C56.9146 117.439 56.6952 117.15 56.5955 116.95L56.5556 116.891C52.8158 110.827 50.6318 103.038 50.5021 96.1772C50.5021 95.7284 50.3226 95.2996 50.0135 94.9705C49.5647 94.4818 49.1259 93.8336 48.707 92.9859C47.7796 91.111 46.9518 88.4383 46.2238 85.5462C45.4759 82.5743 44.9772 79.9615 44.9872 78.0567C44.9872 77.0295 45.1268 76.2715 45.3861 75.753V75.733C45.5856 75.3142 45.9545 75.005 46.3734 74.9053C47.2011 74.7058 47.7796 73.9678 47.7796 73.1202H45.9446L46.3834 74.9053L46.5031 74.8754H46.513L45.9546 73.1202L44.1694 73.559C44.2891 74.0377 44.5983 74.4565 45.0171 74.7058C45.436 74.9551 45.9446 75.025 46.4233 74.9053C46.5529 74.8754 46.6925 74.8554 46.8222 74.8554V73.0204L46.7923 74.8554V74.277L46.7125 74.8454H46.7923V74.277L46.7025 74.8454V74.8355C46.7025 74.8355 46.8621 74.8953 47.1413 74.9452C47.6599 75.0349 48.1984 74.9053 48.6073 74.5762C49.0162 74.2471 49.2755 73.7584 49.3054 73.2299C49.6046 67.5554 50.4922 62.0504 52.2374 57.084L52.2872 56.9045C53.853 50.3823 57.4132 45.2264 61.881 41.4667C67.9345 36.3606 75.6434 33.7876 82.0659 33.7976V31.9626L81.9661 33.7976H82.026H82.1257C90.9416 33.8176 97.9225 36.1811 103.388 40.4195L103.557 40.5392C107.746 43.1122 110.867 46.3932 113.121 50.4222C115.375 54.4512 116.771 59.268 117.349 64.8428L117.389 65.0622C117.429 65.2517 117.459 65.3414 117.469 65.3614C117.798 66.7875 117.968 68.4729 118.058 70.2779C118.077 70.7965 118.327 71.2852 118.726 71.6143C119.125 71.9434 119.653 72.083 120.172 72.0132C120.401 71.9733 120.541 71.9334 120.591 71.9135H120.611L120.401 71.0757L120.481 71.9234C120.571 71.9234 120.621 71.9035 120.621 71.9035L120.411 71.0757L120.491 71.9234L120.321 70.0984V71.9334C121.109 71.9334 121.618 72.083 121.987 72.2924C122.266 72.442 122.485 72.6315 122.685 72.8908C122.984 73.2697 123.233 73.8182 123.403 74.5363C123.572 75.2443 123.642 76.092 123.642 76.9896C123.642 78.8844 123.303 80.9687 123.004 82.5344L124.809 82.8735L123.024 82.4347C122.765 83.5118 122.545 84.7284 122.296 85.9451C121.917 87.7801 121.418 89.635 120.7 90.8617C120.351 91.48 119.962 91.9387 119.553 92.2279C119.145 92.5172 118.726 92.6867 118.097 92.7266C117.15 92.7764 116.402 93.5443 116.362 94.5017C116.203 99.1191 115.684 103.667 114.427 107.965C114.278 108.474 114.358 109.032 114.647 109.481C114.936 109.93 115.405 110.229 115.933 110.309C128.16 112.014 136.966 115.375 142.69 118.277C145.552 119.733 147.647 121.069 149.003 122.027C149.681 122.505 150.18 122.894 150.509 123.153C150.668 123.283 150.788 123.383 150.858 123.443L150.938 123.512H150.948L151.197 123.243L150.948 123.522L152.194 122.166L152.184 122.096Z" fill="#0C849C"/>
<path d="M45.4063 85.7256C46.972 91.9486 48.9865 97.2441 51.8886 96.5161C54.7906 95.7881 55.8777 90.1535 54.3219 83.9305C52.7662 77.7075 49.1361 73.2597 46.234 73.9877C43.332 74.7157 43.8406 79.5026 45.4063 85.7156V85.7256Z" fill="#F7FAFC"/>
<path d="M45.4061 85.7257L44.4886 85.9551C45.2266 88.907 46.0743 91.6595 47.1015 93.7637C47.6201 94.8108 48.1885 95.7084 48.8667 96.3865C49.5348 97.0547 50.3925 97.5434 51.3599 97.5334C51.6191 97.5334 51.8685 97.5035 52.1178 97.4437C52.8059 97.2741 53.4142 96.8952 53.9029 96.3965C54.6409 95.6386 55.1395 94.6313 55.4786 93.4546C55.8177 92.2678 55.9772 90.9115 55.9772 89.4355C55.9772 87.6604 55.7379 85.7157 55.2393 83.7212C54.4813 80.7293 53.2746 78.1264 51.8485 76.2117C51.1305 75.2543 50.3626 74.4764 49.5348 73.908C48.7071 73.3495 47.8096 72.9905 46.8721 72.9905C46.5829 72.9905 46.2937 73.0204 45.9945 73.1002L45.9147 73.1201L46.0045 73.1002C45.5059 73.2199 45.0471 73.4592 44.6681 73.7783C44.0997 74.257 43.7307 74.9152 43.5113 75.6333C43.2919 76.3613 43.2021 77.1591 43.2021 78.0467C43.2021 80.2407 43.7307 82.9433 44.4986 85.985L45.4161 85.7556L46.3336 85.5262C45.5856 82.5543 45.097 79.9315 45.097 78.0467C45.097 77.0394 45.2466 76.2516 45.4859 75.7729C45.6056 75.5335 45.7452 75.354 45.8948 75.2244C46.0444 75.0947 46.2239 75.005 46.4732 74.9352C46.6029 74.9052 46.7325 74.8853 46.8721 74.8853C47.3209 74.8853 47.8694 75.0648 48.4678 75.4737C49.3753 76.092 50.3726 77.2189 51.2402 78.7248C52.1178 80.2307 52.8757 82.1056 53.4043 84.1899C53.873 86.0448 54.0924 87.8399 54.0924 89.4455C54.0924 91.2306 53.8132 92.7664 53.3444 93.8435C53.1151 94.382 52.8358 94.8009 52.5466 95.0901C52.2574 95.3793 51.9682 95.5488 51.6491 95.6286C51.5294 95.6585 51.4297 95.6685 51.3399 95.6685C51.0008 95.6685 50.6418 95.5189 50.1731 95.0701C49.485 94.402 48.747 93.0955 48.0988 91.4101C47.4406 89.7347 46.8422 87.6903 46.3037 85.5262L45.3862 85.7556L45.4061 85.7257Z" fill="#0C849C"/>
<path d="M118.407 65.1121C122.994 85.0177 104.126 132.099 83.6817 132.099C71.4352 132.099 56.3763 116.542 51.2204 99.6577C47.7698 88.3785 51.5595 76.0821 50.7716 67.9344C48.5178 44.5882 68.1441 32.8203 82.1957 32.8602C102.63 32.9101 113.839 45.3361 118.407 65.1121Z" fill="#F7FAFC"/>
<path d="M118.407 65.1121L117.489 65.3216C117.938 67.2762 118.157 69.54 118.157 72.0232C118.157 82.8736 113.939 97.8128 107.437 109.92C104.196 115.973 100.386 121.329 96.3072 125.128C94.2727 127.023 92.1685 128.539 90.0543 129.566C87.9401 130.593 85.8059 131.142 83.6817 131.142C80.8195 131.142 77.728 130.224 74.6165 128.559C69.9492 126.056 65.252 121.867 61.2729 116.751C57.2938 111.625 54.0128 105.572 52.1179 99.3685C51.0409 95.8382 50.6819 92.1682 50.6819 88.5381C50.6819 82.0558 51.8187 75.7231 51.8187 70.4475C51.8187 69.54 51.7888 68.6724 51.6991 67.8347C51.5794 66.618 51.5295 65.4312 51.5295 64.2844C51.5295 54.1222 55.9375 46.5528 61.981 41.4468C68.0145 36.3507 75.7234 33.7777 82.1259 33.7877H82.1359H82.1559H82.1758C92.2084 33.8176 99.8375 36.8494 105.592 42.2646C111.336 47.6798 115.216 55.5483 117.469 65.3116L118.387 65.1021L119.304 64.8927C117.001 54.8901 112.992 46.6526 106.878 40.8983C100.775 35.134 92.5774 31.9328 82.1758 31.9128V32.8603L82.2157 31.9128H82.106C75.2148 31.9128 67.1469 34.6155 60.7344 40.0107C54.3319 45.396 49.6048 53.5537 49.6148 64.2844C49.6148 65.4911 49.6746 66.7377 49.7943 68.0142C49.8641 68.7821 49.904 69.5899 49.904 70.4475C49.904 75.4638 48.7671 81.8564 48.7671 88.5381C48.7671 92.2879 49.1261 96.1473 50.2829 99.917C52.9158 108.524 58.0417 116.741 64.0852 122.854C67.107 125.906 70.3681 128.439 73.689 130.214C76.9999 131.989 80.3907 133.017 83.6518 133.017C86.1051 133.017 88.5284 132.378 90.8521 131.251C94.921 129.267 98.7405 125.786 102.211 121.398C107.417 114.816 111.845 106.17 114.996 97.3241C118.138 88.4683 120.002 79.433 120.012 72.0033C120.012 69.4104 119.783 67.0169 119.294 64.8827L118.377 65.0922L118.407 65.1121Z" fill="#0C849C"/>
<path d="M152.244 122.126C152.244 122.126 130.913 102.53 81.2682 108.384C55.738 110.288 27.9639 144.206 27.9639 144.206C30.8859 157.071 126.365 199.624 152.254 122.126H152.244Z" fill="#0C849C"/>
<path d="M102.829 73.6985C99.5481 71.305 95.5391 68.8916 91.3605 69.8789C88.7875 70.8164 86.1547 71.4147 83.4022 71.6042C82.5745 71.6641 82.754 70.3776 83.5419 70.6768C84.3596 70.9959 85.2472 70.577 86.055 70.3875C87.2517 70.0385 88.5183 69.47 89.6452 68.9215C92.6869 67.5353 96.307 68.0739 99.219 69.4302C100.904 70.1781 102.46 71.1255 103.946 72.1527C104.385 72.4519 104.485 73.0503 104.185 73.4791C103.876 73.9279 103.258 74.0276 102.829 73.6985Z" fill="#0C849C"/>
<path d="M85.4465 77.7973C88.8472 73.878 96.3966 73.9977 99.0394 78.7846C99.1391 78.9542 98.9097 79.1536 98.7601 79.014C94.9505 75.9723 89.9442 76.3513 85.6559 78.1065C85.4764 78.1763 85.3169 77.9369 85.4565 77.8073L85.4465 77.7973Z" fill="#0C849C"/>
<path d="M95.8781 79.0539C95.8781 80.8889 94.3822 81.0285 92.5472 81.0285C90.7122 81.0285 89.2163 80.8889 89.2163 79.0539C89.2163 78.1763 89.5654 77.3685 90.1139 76.7801C92.2381 76.3812 94.0631 76.6904 95.4094 77.2489C95.7086 77.7475 95.8781 78.4356 95.8781 79.0539Z" fill="#0C849C"/>
<path d="M93.9136 83.7809C91.5201 85.4564 87.7604 84.5588 87.0723 81.5271C88.1493 82.1454 88.987 83.0828 90.2336 83.2723C91.4304 83.5815 92.667 83.6413 93.9136 83.7809Z" fill="#0C849C"/>
<path d="M84.968 120.77L84.9181 120.8C84.6688 120.93 83.4821 121.478 81.7767 121.478C80.7994 121.478 79.6425 121.299 78.376 120.76L78.1865 121.199C79.5129 121.767 80.7395 121.957 81.7767 121.957C83.851 121.957 85.1874 121.199 85.2073 121.189L84.968 120.77Z" fill="#0C849C"/>
<path d="M124.321 82.7438C123.303 89.0765 121.548 94.5017 117.649 93.8734C113.75 93.2451 111.396 87.6105 112.413 81.2778C113.43 74.9451 117.41 70.3177 121.319 70.946C125.228 71.5743 125.338 76.4111 124.321 82.7438Z" fill="#F7FAFC"/>
<path d="M124.859 82.8237C123.911 86.8627 123.193 95.2697 117.349 94.5217C107.436 91.849 110.488 70.8065 120.371 70.0586C126.953 70.0885 125.657 78.5155 124.859 82.8237ZM123.782 82.6542C124.091 79.3931 124.929 75.4838 123.014 72.7014C120.551 70.268 117.04 72.7911 115.524 75.404C112.532 79.8718 111.306 91.0413 117.619 93.1555C122.026 93.9433 123.253 85.8455 123.782 82.6641V82.6542Z" fill="#0C849C"/>
<path d="M61.133 123.183C61.133 123.183 70.6869 152.433 82.5346 172.718C94.821 172.718 97.3441 171.402 97.3441 171.402C97.3441 171.402 110.538 131.949 111.396 107.865C101.184 120.301 66.5582 126.355 60.6045 122.934" fill="#F7FAFC"/>
<path d="M60.9435 123.243C60.9435 123.243 70.4974 152.503 82.3649 172.818L82.4248 172.917H82.5345C94.8309 172.917 97.3739 171.611 97.4338 171.581L97.5036 171.541L97.5335 171.461C97.5335 171.461 110.727 131.999 111.595 107.865L111.615 107.277L111.246 107.736C107.137 112.742 98.9696 116.741 90.3232 119.474C81.6768 122.206 72.5617 123.672 66.5781 123.672C63.8356 123.672 61.7513 123.353 60.7141 122.755L60.5146 123.104C61.6914 123.772 63.8057 124.071 66.5781 124.071C72.6216 124.071 81.7666 122.595 90.4429 119.852C99.1291 117.11 107.347 113.101 111.555 107.985L111.406 107.855H111.206C110.777 119.862 107.267 135.739 103.866 148.604C102.161 155.036 100.485 160.721 99.2388 164.79C98.6106 166.824 98.092 168.46 97.7329 169.587C97.3739 170.714 97.1645 171.322 97.1645 171.332L97.354 171.392L97.2642 171.212H97.2443C96.975 171.342 94.053 172.509 82.5444 172.509V172.708L82.714 172.608C76.8002 162.476 71.4548 150.1 67.5853 140.257C65.6506 135.33 64.0849 131.052 63.0078 127.99C62.4693 126.464 62.0505 125.238 61.7612 124.4C61.472 123.562 61.3324 123.104 61.3324 123.104L60.9534 123.223L60.9435 123.243Z" fill="#0C849C"/>
<path d="M95.2001 132.368C95.2001 132.368 92.9163 148.823 84.2999 150.02C77.7677 150.459 73.9282 133.565 73.9282 133.565" fill="#0C849C"/>
<path d="M87.5708 136.108C87.5708 136.108 98.6106 144.445 102.52 149.492C106.3 137.315 108.952 120.979 108.952 120.979C108.952 120.979 91.0912 133.735 87.5708 136.118V136.108Z" fill="#F7FAFC"/>
<path d="M88.7973 136.138C88.8571 135.839 88.6477 135.39 88.4083 135.27C89.3657 136.617 90.6223 137.724 91.9088 138.741C95.7582 141.912 100.007 145.153 103.497 148.733L101.363 149.122C104.165 139.878 106.12 130.294 107.755 120.78L109.68 121.977C102.829 126.853 95.9477 131.431 88.8072 136.148L88.7973 136.138ZM86.344 136.078C94.2224 130.124 102.44 124.011 110.648 118.287C108.763 129.715 106.499 141.084 102.988 152.144L101.552 150.239C99.7872 147.537 97.3339 145.143 94.9305 142.949C92.4872 140.855 90.1536 138.442 87.1318 137.195C86.703 137.085 86.3838 136.497 86.334 136.078H86.344Z" fill="#0C849C"/>
<path d="M81.0786 136.497C81.0786 136.497 74.7259 145.333 71.4549 150.638C66.0895 142.68 62.25 127.99 62.25 127.99C62.25 127.99 76.8501 130.134 81.0885 136.497H81.0786Z" fill="#F7FAFC"/>
<path d="M82.305 136.517C82.2452 136.856 82.0856 137.235 81.8463 137.375C79.6822 139.14 78.3159 141.633 76.7602 143.907C74.8654 146.779 73.1401 149.811 71.694 152.932C68.5925 149.142 66.6877 144.505 64.9126 140.087C63.1973 135.639 61.7712 131.102 60.5645 126.484C64.773 127.103 68.9017 128.03 72.8708 129.546C75.9724 130.763 79.1736 132.328 81.4075 134.921C81.8064 135.34 82.1455 135.978 82.2951 136.517H82.305ZM79.8517 136.467C79.7121 136.527 79.6722 136.647 79.6922 136.667L79.3531 136.278C76.1319 132.967 71.4746 131.501 67.0966 130.274C65.4411 129.845 63.7258 129.466 62.0604 129.197L63.4266 127.671C65.6107 135.31 68.2036 143.249 72.4619 149.95L70.4076 149.99C72.1727 147.706 73.888 145.423 75.5734 143.089C76.9397 141.094 79.2334 138.352 80.0013 136.048C80.131 135.679 79.8019 136.278 79.8617 136.467H79.8517Z" fill="#0C849C"/>
<path d="M83.1229 98.461C83.1229 98.461 99.4583 99.7475 100.376 106.998C101.393 99.0394 111.595 93.3151 111.087 81.1683C113.191 78.356 114.368 74.686 114.737 70.637C115.265 64.7232 114.447 57.7024 111.805 51.5991C107.955 42.6834 100.675 35.6626 91.7294 33.9573C109.521 38.5846 118.766 47.4205 118.766 73.4194C118.766 73.6987 117.18 79.8718 117.2 80.1411C118.566 109.242 113.959 116.641 101.413 127.322C96.1274 131.82 88.0694 136.537 79.443 135.719C65.5609 134.403 65.2019 128.589 60.5746 123.552C49.6544 111.675 49.4549 96.7058 49.5946 94.3323C49.2854 89.7349 47.3507 75.394 48.7369 68.3034C49.4849 64.4938 50.0533 41.5166 74.2173 34.057C71.8737 34.6653 52.0479 40.8285 51.3298 62.0405C50.8412 68.1139 51.6589 76.3215 51.8384 76.6107C52.9055 78.326 50.911 84.559 51.2201 87.3215C51.5293 90.0739 54.94 105.97 60.3552 104.544C64.8429 99.3386 72.2526 99.4683 78.2762 98.9597" fill="#F7FAFC"/>
<path d="M83.2026 97.4436C88.7574 98.3212 99.6576 100.296 100.655 106.968H100.096C100.316 104.524 101.373 102.231 102.56 100.166C106.16 94.3022 110.289 88.2886 109.91 81.1382C109.91 80.8888 109.999 80.6595 110.139 80.47C111.525 78.6948 112.502 76.5706 113.111 74.3168C114.756 67.4256 114.018 59.9062 111.655 53.2444C108.374 44.4783 101.074 36.5001 91.5697 34.8746L91.9686 33.0795C104.893 36.2608 114.607 42.8727 117.858 56.4157C119.254 61.8509 119.653 67.4156 119.683 72.9804C119.683 73.2697 119.713 73.5888 119.613 73.9179C119.204 75.7728 118.456 78.5153 118.127 80.2506C118.476 92.1979 119.184 105.103 113.071 115.883C110.977 119.443 108.184 122.495 105.212 125.228C99.2986 130.782 92.2379 135.679 83.9505 136.607C77.8572 137.035 71.0657 136.058 66.2489 132.019C64.6333 130.613 63.4366 128.878 62.2997 127.262C59.986 123.991 57.0041 121.209 55.0295 117.668C50.8609 110.817 48.5074 102.001 48.6869 94.4219C48.0686 87.042 47.0513 79.4627 47.4203 71.9532C48.7467 53.6931 55.3287 39.0232 73.9578 33.2091L74.4565 34.9743C67.8944 36.8292 61.6215 40.7286 57.413 46.1737C50.7413 54.5907 51.0704 66.2189 52.2372 76.3612C52.1873 76.3612 52.4167 76.7003 52.4665 76.9396C52.5463 77.1889 52.5862 77.4383 52.6161 77.6776C52.8555 80.7293 51.8283 83.9804 51.9579 86.9323C52.8854 91.9087 54.2916 97.1544 56.705 101.612C57.5526 103.028 58.7793 104.305 60.2253 104.075L59.976 104.235C62.0404 101.542 65.2416 99.8969 68.4728 99.0592C71.714 98.1915 75.0149 97.9323 78.1563 97.5034C78.8145 97.4137 79.4129 97.8724 79.5027 98.5306C79.5924 99.1888 79.1337 99.7872 78.4755 99.8769C72.2724 100.286 65.2317 99.9467 60.734 104.883L60.4846 105.043C60.3849 105.153 60.2453 105.162 60.1057 105.182C56.2263 105.372 54.5708 100.296 53.404 97.3937C52.2671 93.9831 51.3097 90.5724 50.9208 86.9722C50.8111 83.5615 52.3868 80.2207 51.6288 76.8898C50.2925 69.8091 49.6642 62.1899 51.3795 55.0494C54.0223 44.2091 63.4266 36.0813 73.9778 33.1892C75.1246 32.89 75.6332 34.5654 74.5163 34.9444C56.8944 40.7086 51.0504 54.7702 49.8936 72.0929C49.5944 79.5226 50.6615 86.8027 51.3197 94.2423C51.2299 101.852 53.414 109.73 57.3532 116.262C59.2979 119.723 62.2698 122.415 64.5336 125.666C68.3432 131.999 73.878 133.565 80.8989 133.924C89.5253 134.113 97.2442 128.967 103.367 123.233C106.26 120.61 108.852 117.778 110.777 114.537C116.601 104.305 115.903 91.809 115.634 80.3603C115.614 80.1708 115.674 79.6522 115.694 79.6123C116.133 77.7275 116.781 75.1545 117.22 73.2697C117.22 68.6323 116.9 62.0503 115.554 57.0141C112.562 44.239 103.687 38.0858 91.4999 34.8646C90.3032 34.6153 90.7021 32.7903 91.8988 33.0695C107.057 36.5001 115.594 52.6659 115.325 67.3059C115.285 72.2225 114.437 77.3784 111.455 81.4573L111.545 81.1581C111.545 83.6114 111.126 85.965 110.707 88.3784C109.172 95.459 102.151 100.017 100.645 107.057C100.585 107.366 100.116 107.357 100.086 107.037C98.7501 101.014 88.159 99.847 83.0131 99.3883C81.6967 99.2786 81.8762 97.3139 83.1926 97.4536L83.2026 97.4436Z" fill="#0C849C"/>
<path d="M68.6328 106.778C68.6328 106.778 72.951 108.294 80.63 107.895C84.3997 107.706 86.7134 107.835 91.4804 105.761C89.5756 110.388 86.863 113.151 81.1087 113.38C77.1097 113.54 73.5394 113.62 68.6428 106.778H68.6328Z" fill="#F7FAFC"/>
<path d="M68.154 106.419C68.2837 106.24 68.6626 106.12 68.9119 106.23L69.1513 106.299C72.7116 107.257 76.4414 107.436 80.1213 107.307C84.0007 107.247 87.7006 106.888 91.231 105.212C91.5401 105.083 91.8991 105.222 92.0288 105.532C92.0886 105.681 92.0886 105.851 92.0288 105.99C91.1113 108.234 89.7949 110.508 87.6807 112.004C84.4495 114.208 80.5202 114.268 76.8203 113.799C73.6689 113.25 71.1758 110.987 69.251 108.583C68.8122 108.174 68.2737 107.017 68.144 106.409L68.154 106.419ZM69.1214 107.147C69.4106 107.337 69.7397 107.386 69.9292 107.376C70.1286 107.376 70.1486 107.396 70.4178 107.646C70.8467 108.045 71.2755 108.434 71.7243 108.783C74.2673 111.036 76.9201 111.984 80.4604 111.665C85.2673 111.735 88.3788 109.61 90.9118 105.532L91.7096 106.319C88.1593 108.035 84.0406 108.473 80.1712 108.513C76.3716 108.653 72.5021 108.463 68.8122 107.466L68.6327 107.416L68.543 107.386H68.523C68.6527 107.456 69.0615 107.327 69.1313 107.147H69.1214Z" fill="#0C849C"/>
<path d="M89.4658 105.053C90.852 103.268 93.804 105.322 92.5773 107.227C92.0787 105.97 90.8121 105.113 89.4658 105.053Z" fill="#0C849C"/>
<path d="M87.7402 144.645C87.7402 144.645 96.227 161.549 98.6204 167.462C98.3212 178.522 78.2461 179.21 73.3794 172.718C73.7384 159.265 83.033 144.316 83.033 144.316C83.033 144.316 85.4464 141.463 87.7501 144.645H87.7402Z" fill="#0C849C"/>
<path d="M114.926 108.334C114.926 108.334 115.255 109.531 115.774 111.465C117.32 117.269 120.471 129.745 121.079 136.547L121.279 136.527L121.169 136.357C119.673 137.374 118.556 138.073 117.818 138.511C117.449 138.731 117.17 138.89 116.981 138.99C116.791 139.09 116.711 139.14 116.711 139.14L116.253 139.369L123.313 141.334L110.648 166.355L111.007 166.535L123.892 141.084L116.861 139.13L116.811 139.319L116.901 139.499C116.901 139.499 118.417 138.741 121.409 136.696L121.508 136.627V136.507C120.681 127.362 115.325 108.234 115.325 108.234L114.946 108.344L114.926 108.334Z" fill="#0C849C"/>
<path d="M47.7399 126.175L45.875 145.024H54.7507L48.3782 151.925L48.5676 152.055C48.5676 152.055 67.0471 165.099 69.5204 166.605L69.7298 166.266C68.5231 165.528 63.2774 161.888 58.3509 158.437C55.8876 156.712 53.5042 155.036 51.729 153.79C49.9539 152.543 48.807 151.725 48.797 151.725L48.6873 151.885L48.8369 152.015L55.6682 144.615H46.3238L48.1488 126.205L47.7499 126.165L47.7399 126.175Z" fill="#0C849C"/>
<path d="M121.768 75.6532C121.05 76.3513 120.95 77.199 120.74 78.0965C120.322 80.4002 120.222 82.7837 119.195 84.9777C118.975 85.5163 118.367 86.0348 117.749 85.9551C118.058 85.5063 118.147 85.247 118.008 84.7384C117.539 81.8164 117.599 78.1265 120.132 76.092C120.601 75.7729 121.199 75.4936 121.768 75.6532Z" fill="#0C849C"/>
<path d="M68.3534 117.499C66.668 119.503 64.7732 121.707 64.8031 124.46C63.5665 121.717 65.8802 118.596 68.3534 117.499Z" fill="#0C849C"/>
<path d="M71.9235 120.67C68.7522 123.921 67.3161 128.858 69.54 132.996C69.7495 133.445 69.0813 133.814 68.812 133.405C65.521 129.376 67.5455 122.954 71.9235 120.67Z" fill="#0C849C"/>
<path d="M94.7212 119.074C97.1246 120.521 98.2515 124.28 96.3767 126.564C97.0349 123.951 96.1373 121.288 94.7212 119.074Z" fill="#0C849C"/>
<path d="M110.259 107.436C112.164 108.932 112.951 112.303 111.047 114.098C111.655 111.824 110.967 109.6 110.259 107.436Z" fill="#0C849C"/>
<path d="M56.4658 73.9179C56.4658 73.9179 56.8348 72.1926 61.4921 70.7167C66.1494 69.2407 69.7495 71.3749 69.7495 71.3749L71.1357 72.043C71.1357 72.043 73.6788 76.7502 74.0976 80.3404C74.4966 83.8209 70.0288 95.4591 70.308 97.9024C70.5972 100.416 76.5908 103.328 78.8447 102.171C81.4775 100.824 85.8056 99.5279 85.8056 97.5434C85.8056 97.5434 86.394 94.2922 83.9707 93.7836" fill="#F7FAFC"/>
<path d="M56.2366 73.8681C56.5059 73.14 56.9946 72.7511 57.4932 72.3522C59.029 71.2552 60.7443 70.5471 62.5793 70.0385C65.3817 69.2208 68.543 69.9288 71.0262 70.5172C71.5448 70.6668 72.1731 70.8164 72.3925 71.3649C73.3698 73.14 74.0978 74.9451 74.7261 76.8798C75.3843 78.7846 75.6337 81.2978 75.0951 83.1627C74.1776 87.0321 72.8213 90.5924 71.834 94.2623C71.5947 95.4491 71.0562 96.8951 71.2556 97.9921C72.1532 99.7573 74.3671 100.814 76.2819 101.433C77.0996 101.662 77.9972 101.782 78.5756 101.513C80.3208 100.705 82.1558 100.156 83.8113 99.2487C84.5792 98.8199 85.387 98.2315 85.4269 97.5434C85.6862 96.227 85.5067 94.3621 83.931 94.023C83.6218 93.9532 83.7415 93.5044 84.0307 93.5543C86.125 93.5842 86.7632 96.4364 86.5837 97.5434C86.6136 98.9695 85.5565 99.8271 84.6191 100.555C82.9736 101.662 81.1685 102.42 79.513 103.338C76.6808 105.053 69.2212 100.854 69.4605 97.5234C70.0788 91.7392 73.1105 85.9251 73.0407 80.2307C72.582 77.5679 71.4351 74.9551 70.2683 72.5118L70.7171 72.9406C70.2484 72.6913 69.8195 72.3422 69.3608 72.043C66.3889 69.2806 58.6401 70.5471 56.6954 74.0077C56.6056 74.3069 56.127 74.1373 56.2466 73.8481L56.2366 73.8681Z" fill="#0C849C"/>
<path d="M63.6064 83.4918C64.853 83.4718 66.0897 83.4918 67.2964 83.2724C68.533 83.1328 69.5103 82.3449 70.6173 81.8064C69.3408 84.3694 65.9401 84.9378 63.6064 83.4918Z" fill="#0C849C"/>
<path d="M72.1032 78.6749C68.523 76.0919 63.8059 76.7501 60.3753 79.2832C60.2756 79.363 60.126 79.3431 60.0562 79.2334C62.0108 74.7556 69.9292 73.8082 72.4224 78.3957C72.5321 78.5951 72.2827 78.8145 72.1032 78.6749Z" fill="#0C849C"/>
<path d="M71.5546 78.4855C71.5546 80.4502 70.1086 80.8989 68.3235 80.8989C66.5383 80.8989 65.0923 80.4402 65.0923 78.4855C65.0923 77.7176 65.3117 77.0096 65.6907 76.4311C67.7251 76.2516 69.939 76.6406 71.5546 78.4855Z" fill="#0C849C"/>
<path d="M86.9826 116.452C84.7886 119.842 76.1322 119.763 73.7388 117.289Z" fill="#F7FAFC"/>
<path d="M86.9826 116.452C85.2473 120.87 76.212 121.079 73.7388 117.289C74.2374 117.628 74.746 117.928 75.3145 118.087C78.9046 119.124 84.1503 119.234 86.9826 116.452Z" fill="#0C849C"/>
</g>
<path d="M98.6308 167.462C98.6008 168.879 98.2219 170.125 97.6135 171.212C93.8139 171.741 89.9445 172 86.0053 172C81.7569 172 77.5683 171.691 73.4795 171.082C73.669 168.589 74.1377 166.076 74.766 163.623C75.4342 161.07 76.2719 158.597 77.1694 156.323C79.872 149.402 83.0334 144.316 83.0334 144.316C83.0334 144.316 85.4468 141.463 87.7405 144.645C87.7405 144.645 90.6625 150.459 93.5546 156.462C94.7713 158.966 95.978 161.499 96.9653 163.663C97.6534 165.149 98.2219 166.465 98.6308 167.452V167.462Z" fill="#0C849C"/>
</g>
<defs>
<clipPath id="clip0_1272_1712">
<rect width="172" height="172" fill="white"/>
</clipPath>
</defs>
</svg>
