<svg width="130" height="70" viewBox="0 0 130 70" fill="none" xmlns="http://www.w3.org/2000/svg">
<path d="M55.9265 22.5301C55.6758 23.7131 54.9433 24.4668 54.1664 25.1835C53.6707 25.6412 53.1697 26.0966 52.6368 26.5083C52.1311 26.8986 51.5789 27.2297 51.0488 27.5891C50.9059 27.6856 50.7717 27.7942 50.6282 27.8896C49.6678 28.5263 48.7169 29.1792 47.7397 29.79C47.2476 30.0974 46.7026 30.3175 46.1907 30.5952C45.7781 30.8192 45.3812 31.0737 44.9746 31.309C44.5691 31.5437 44.1646 31.7824 43.7505 32.0011C43.127 32.3304 42.4854 32.6276 41.8671 32.9671C40.5148 33.7104 39.1755 34.4757 37.8252 35.2225C37.5581 35.3702 37.2572 35.4592 36.9885 35.6055C36.5762 35.8286 36.1866 36.0928 35.7727 36.3106C35.4008 36.5068 34.9622 36.6042 34.6338 36.8519C34.0196 37.3162 33.2796 37.4965 32.624 37.8588C32.1174 38.1389 31.5977 38.394 31.0924 38.6764C29.9267 39.3286 28.7687 39.9966 27.602 40.6486C26.4804 41.2749 25.343 41.8746 24.2281 42.5125C21.0779 44.3166 17.9342 46.1332 14.7915 47.9501C13.99 48.413 13.1947 48.8863 12.4063 49.3712C11.5735 49.8829 10.7682 50.4401 9.92415 50.9312C8.78484 51.5952 7.62895 52.2323 6.46262 52.849C5.84587 53.1752 5.19231 52.9616 4.7898 52.3741C4.77205 52.3479 4.75685 52.3195 4.7377 52.2949C4.42425 51.8866 4.42039 51.6667 4.81178 51.3272C5.08194 51.0919 5.4028 50.9109 5.71354 50.7274C6.7609 50.1112 7.81007 49.4995 8.8663 48.8984C9.40981 48.5896 9.98128 48.3282 10.5191 48.0111C12.0809 47.0884 13.6243 46.1344 15.1886 45.2173C16.6579 44.3561 18.1413 43.5201 19.6247 42.6841C21.1319 41.8356 22.6412 40.9906 24.1618 40.1663C25.3535 39.5198 26.5693 38.9169 27.7626 38.2718C28.4692 37.8904 29.1432 37.4494 29.8469 37.0643C30.7163 36.5895 31.6005 36.1442 32.4798 35.6877C33.2899 35.2673 34.1041 34.8539 34.9123 34.4291C36.0422 33.8353 37.1713 33.2374 38.296 32.6335C39.4501 32.0146 40.6054 31.3989 41.7491 30.7596C43.1636 29.9696 44.5786 29.1777 45.9699 28.3483C47.1559 27.6405 48.3126 26.8828 49.4752 26.1365C50.0808 25.7475 50.6966 25.3681 51.2604 24.9241C51.8105 24.4913 52.3101 23.9924 52.8111 23.5027C53.1108 23.2102 53.4108 22.905 53.6437 22.5598C54.5675 21.1929 54.3366 20.5233 53.0204 19.646C52.1042 19.0363 51.1073 18.5678 50.0774 18.2115C48.815 17.7743 47.5226 17.4039 46.2192 17.1102C45.1849 16.8765 44.1169 16.792 43.0608 16.6577C41.9278 16.5133 40.7913 16.4847 39.6515 16.5712C38.4664 16.6617 37.2738 16.6904 36.0955 16.8307C34.994 16.9625 33.9054 17.2036 32.8114 17.4012C30.7848 17.7684 28.8027 18.316 26.8738 19.0297C25.109 19.6827 23.3422 20.3431 21.7018 21.2886C21.1003 21.6354 20.4533 21.9116 19.8792 22.2969C18.8614 22.9806 17.8783 23.7165 16.8926 24.4468C16.6982 24.5908 16.579 24.8349 16.3941 24.9951C15.8951 25.4274 15.2134 25.3185 14.8571 24.7538C14.7422 24.5718 14.6389 24.3683 14.5913 24.1615C14.4496 23.5416 14.9526 23.2262 15.3216 22.9506C16.2764 22.2369 17.3126 21.6335 18.2823 20.9383C19.2888 20.2183 20.4068 19.7197 21.5152 19.1979C22.5085 18.7297 23.5002 18.2524 24.5177 17.8425C25.4319 17.4747 26.3763 17.1764 27.3162 16.8761C28.3332 16.5516 29.3571 16.2495 30.3845 15.96C30.9269 15.8071 31.4806 15.6864 32.0341 15.5776C32.662 15.4546 33.2972 15.364 33.9285 15.2546C35.5308 14.9748 37.1361 14.7291 38.7718 14.7525C39.5954 14.7647 40.4202 14.6928 41.244 14.7119C41.8354 14.7258 42.4262 14.8141 43.0137 14.8889C43.7826 14.987 44.5486 15.1041 45.3155 15.2136C45.3779 15.2229 45.4408 15.2303 45.5029 15.2445C46.5024 15.4682 47.5216 15.6274 48.4965 15.9311C50.0753 16.4238 51.6917 16.8625 53.0867 17.7995C53.8242 18.2951 54.5778 18.8086 55.1806 19.4489C55.7821 20.0869 56.1683 20.9117 56.0931 21.8496C56.0719 22.1092 55.9671 22.3619 55.9242 22.5275L55.9265 22.5301Z" fill="var(--neutral-100, currentColor)"/>
<path d="M55.745 32.5407C55.4448 33.3996 55.1439 34.2574 54.8446 35.1165C54.8086 35.2211 54.7906 35.3323 54.754 35.4357C54.4198 36.3801 54.0157 37.3064 53.7662 38.2727C53.5404 39.144 53.0597 39.8923 52.7762 40.732C52.5325 41.4524 52.159 42.1283 51.8369 42.8215C51.41 43.7409 50.985 44.6608 50.5442 45.5735C50.3824 45.9097 50.183 46.2281 49.9944 46.5504C48.8515 48.5047 47.727 50.4716 46.5552 52.4085C45.731 53.7699 44.8465 55.0949 43.9774 56.4289C43.4311 57.2673 42.8461 58.0808 42.3099 58.9257C41.968 59.4645 41.6737 60.0353 41.3733 60.5996C40.9786 61.3417 40.5977 62.0914 40.2136 62.8382C40.1855 62.8938 40.1534 62.9571 40.1547 63.0164C40.1571 63.1171 40.1522 63.2494 40.2112 63.3059C40.2599 63.3529 40.4103 63.3409 40.4902 63.3017C41.4071 62.8481 42.33 62.4049 43.2292 61.9173C44.3934 61.2862 45.5257 60.5959 46.6937 59.9727C47.5118 59.5367 48.3641 59.1656 49.2048 58.7747C50.2991 58.265 51.3796 57.7183 52.499 57.2711C53.7781 56.7612 55.0876 56.323 56.3958 55.8903C57.4352 55.547 58.4889 55.2399 59.5454 54.9521C60.3724 54.7276 61.2105 54.5363 62.052 54.3695C63.0136 54.1789 63.9802 53.9955 64.9523 53.8783C66.0674 53.7432 67.1916 53.6791 68.3125 53.5936C69.0129 53.5395 69.7155 53.4654 70.417 53.4675C71.7739 53.4717 73.1353 53.4623 74.4849 53.5745C75.5904 53.6656 76.6888 53.8905 77.7773 54.1196C78.8031 54.3364 79.8358 54.5688 80.821 54.9194C81.8187 55.2753 82.7126 55.8723 83.2863 56.7957C83.5669 57.2474 83.748 57.7834 83.8719 58.3055C83.9876 58.795 83.7812 59.3071 83.3762 59.5585C83.1306 59.7109 82.69 59.793 82.3519 59.5709C82.1034 59.4083 81.8738 59.2182 81.6346 59.0423C81.4491 58.9058 81.3945 58.7414 81.4493 58.5072C81.5097 58.244 81.7361 57.9502 81.4869 57.7029C81.18 57.3985 80.8631 57.0336 80.4775 56.8924C79.4882 56.5309 78.4707 56.2249 77.4412 55.9993C76.4971 55.7928 75.5249 55.695 74.5602 55.5981C73.6914 55.5103 72.8155 55.4728 71.9418 55.4417C71.4299 55.4239 70.9144 55.4503 70.4022 55.4756C69.3899 55.5245 68.3746 55.551 67.3672 55.6531C66.1983 55.7723 65.0313 55.9333 63.8721 56.1286C61.951 56.4525 60.0786 56.9746 58.2136 57.5368C56.7084 57.9911 55.2549 58.5678 53.7898 59.1287C52.6148 59.5782 51.472 60.0851 50.3359 60.6233C49.3127 61.1082 48.2883 61.5791 47.3161 62.1666C46.3847 62.7294 45.4253 63.2485 44.4694 63.7696C43.6128 64.2368 42.7607 64.717 41.8763 65.125C41.0789 65.4927 40.1955 65.5937 39.3523 65.377C38.9171 65.2642 38.5386 64.8794 38.1685 64.5763C37.7626 64.2442 37.7453 63.7959 37.8057 63.2902C37.9101 62.4139 38.3114 61.6538 38.679 60.8909C39.1382 59.9377 39.6881 59.0247 40.2439 58.1231C40.7342 57.3262 41.2906 56.57 41.8098 55.7905C41.9997 55.5048 42.1637 55.2017 42.3461 54.9112C42.5925 54.5175 42.8398 54.1241 43.0979 53.7383C43.5942 52.998 44.115 52.2728 44.5971 51.5229C45.0703 50.7884 45.5123 50.034 45.9601 49.284C46.3914 48.5631 46.826 47.8451 47.2358 47.1128C47.8528 46.009 48.49 44.9144 49.0425 43.7792C49.6509 42.5308 50.1932 41.2496 50.7251 39.9666C51.1023 39.0569 51.3933 38.1122 51.76 37.1978C52.377 35.662 52.892 34.0959 53.2695 32.4842C53.3176 32.2797 53.335 32.1104 53.225 31.9022C53.0145 31.502 53.2769 31.134 53.4583 30.8168C53.6212 30.533 53.9191 30.3156 54.1858 30.1049C54.3599 29.9674 55.1243 30.1057 55.3044 30.2898C55.7802 30.7725 56.0719 31.3175 55.838 32.0228C55.7836 32.1874 55.7489 32.3591 55.7052 32.5274C55.7181 32.5308 55.7324 32.5364 55.745 32.5407Z" fill="var(--neutral-100, currentColor)"/>
<path d="M67.0939 46.7264C67.5756 45.1938 68.0505 44.2103 68.6248 43.2752C69.1458 42.4244 69.7055 41.6101 70.4869 40.9594C71.3247 40.2615 72.2893 40.048 73.3326 40.1329C73.6287 40.1576 73.9492 40.3036 74.1902 40.4838C74.5972 40.7887 74.9574 41.157 75.321 41.5154C75.471 41.6642 75.6007 41.747 75.8349 41.7605C76.6549 41.8091 77.1159 42.2428 77.2869 43.053C77.4071 43.6233 77.4931 44.1817 77.1929 44.7411C77.113 44.8903 77.2048 45.1311 77.2153 45.3292C77.2369 45.7649 77.228 46.2044 77.284 46.6362C77.3758 47.3503 77.762 47.8678 78.4142 48.1929C78.9263 48.4484 79.2616 49.1058 79.1222 49.6471C79.0745 49.8311 78.8905 50.075 78.7277 50.1123C78.423 50.1816 78.0771 50.1676 77.7692 50.0976C77.5214 50.0422 77.3125 49.8329 77.0716 49.7282C76.6448 49.5449 76.4132 49.1697 76.1313 48.8403C75.8643 48.5296 75.7477 48.521 75.429 48.7692C75.1816 48.9624 74.9551 49.1884 74.6888 49.3482C73.6856 49.9532 72.5873 50.3529 71.4476 50.5562C70.6425 50.7 69.7932 50.7263 69.0168 50.2933C67.6923 49.5543 66.6592 47.9717 67.0995 46.7239L67.0939 46.7264ZM73.3983 42.4024C73.3155 42.381 73.2257 42.3332 73.1388 42.3391C72.6096 42.3767 72.197 42.6615 71.8243 43.0048C71.2802 43.505 70.8573 44.1023 70.5009 44.7463C70.3507 45.0187 70.2033 45.2957 70.0812 45.5812C69.8229 46.1839 69.5767 46.7926 69.3323 47.4019C69.1335 47.8963 69.3473 48.2797 69.8479 48.432C70.4167 48.605 70.9244 48.3095 71.4627 48.2595C71.7785 48.2304 72.1024 48.1062 72.3842 47.9544C72.8248 47.7171 73.2595 47.4528 73.6489 47.1403C74.1961 46.6999 74.5968 46.1272 74.7124 45.4237C74.7777 45.0282 74.7068 44.6122 74.7147 44.2067C74.7209 43.9098 74.6166 43.7443 74.3051 43.6882C73.9514 43.6249 73.6469 43.4321 73.5027 43.0982C73.415 42.8948 73.4312 42.6466 73.3983 42.4024Z" fill="var(--neutral-100, currentColor)"/>
<path d="M65.8321 25.1057C65.4729 25.4004 65.1465 25.7164 64.7748 25.9647C64.0474 26.4488 63.2874 26.8841 62.556 27.3612C61.7918 27.8583 60.9504 28.0173 60.0632 27.966C59.8107 27.9516 59.542 27.8633 59.3201 27.738C58.6339 27.351 58.074 26.8141 57.8982 26.0262C57.7919 25.5499 57.9515 25.0669 58.2171 24.637C58.7988 23.6959 59.3446 22.7307 59.9605 21.8132C60.5985 20.8632 61.3312 19.976 62.242 19.2694C62.7127 18.9044 63.2214 18.5708 63.7575 18.3171C64.0262 18.1894 64.4036 18.2184 64.7172 18.2703C66.0305 18.4841 66.9725 19.8388 66.6045 21.0729C66.5435 21.278 66.6151 21.3918 66.7607 21.5159C67.1255 21.8246 67.4076 22.1982 67.4973 22.6741C67.5414 22.9094 67.5447 23.1655 67.5007 23.3996C67.426 23.7976 67.5506 24.1578 67.9127 24.2762C68.3444 24.4176 68.7913 24.5118 69.2325 24.6243C69.3733 24.6607 69.5993 24.6486 69.6415 24.7322C69.7421 24.9311 69.8197 25.181 69.7953 25.3966C69.7178 26.0589 69.5022 26.2014 68.7886 26.1853C68.6226 26.1815 68.4547 26.246 68.2878 26.242C67.4541 26.2233 66.749 25.8942 66.142 25.3343C66.0517 25.251 65.9427 25.1864 65.8302 25.1052L65.8321 25.1057ZM60.2469 25.7346C61.9785 25.6798 64.9696 23.0086 65.2207 21.377C64.9156 21.1525 64.6079 20.9265 64.3044 20.7035C62.5243 22.0438 61.3231 23.7954 60.2469 25.7346Z" fill="var(--neutral-100, currentColor)"/>
<path d="M104.055 41.7281C104.022 42.2332 104.438 42.4834 104.784 42.7479C104.988 42.9039 105.265 42.9699 105.517 43.0548C106.26 43.3052 107.039 43.3481 107.805 43.319C108.252 43.3021 108.698 43.1066 109.128 42.9462C109.428 42.8344 109.664 42.8937 109.757 43.1895C109.968 43.8659 109.656 44.603 109.092 45.0292C108.439 45.5227 107.733 45.5242 106.966 45.5208C106.364 45.5181 105.81 45.395 105.254 45.2371C103.997 44.8809 102.965 44.1557 102.332 43.0275C101.683 41.8694 101.378 40.5963 101.851 39.2658C102.153 38.417 102.65 37.7025 103.315 37.0824C104.203 36.2523 105.189 35.581 106.36 35.2658C107.779 34.8844 108.898 35.2542 109.702 36.5415C109.879 36.8262 110.05 37.1317 110.141 37.4518C110.381 38.2947 109.955 39.0591 109.151 39.5213C108.489 39.9024 107.777 40.198 107.119 40.5863C106.527 40.9355 105.908 41.1853 105.25 41.3625C104.86 41.4677 104.476 41.5978 104.055 41.7281ZM105.743 38.3492C106.259 38.0568 106.957 38.1297 107.4 37.5247C106.696 37.6103 106.16 37.8623 105.743 38.3492Z" fill="var(--neutral-100, currentColor)"/>
<path d="M88.1893 21.3816C87.58 22.5237 86.5803 23.111 85.6753 23.8033C85.0863 24.2535 84.4599 24.5221 83.694 24.4915C83.2569 24.4735 82.9041 24.3152 82.5674 24.0876C81.782 23.557 81.3924 22.7795 81.2304 21.8704C81.0737 20.9903 81.3934 20.2228 81.7957 19.4699C82.2649 18.5919 82.8439 17.7974 83.5924 17.1411C84.1667 16.638 84.682 16.0136 85.4581 15.8229C86.2572 15.6265 86.5586 15.7214 87.0794 16.2766C87.4572 16.679 87.5891 17.1628 87.8015 17.6274C87.8578 17.751 87.9756 17.8954 88.0956 17.9324C88.7998 18.1513 89.2294 18.6151 89.4447 19.3112C89.7396 20.2644 90.3873 20.887 91.2715 21.3361C92.1563 21.7864 93.0574 22.1702 94.0167 22.4238C94.4266 22.532 94.586 22.917 94.2879 23.2148C93.9319 23.5693 93.5782 24.0059 92.932 23.8207C92.5783 23.7192 92.1735 23.7959 91.82 23.6935C91.2973 23.5433 90.7628 23.3664 90.2993 23.0901C89.7152 22.7414 89.1925 22.2877 88.6526 21.8669C88.4998 21.7478 88.3802 21.5842 88.1909 21.383L88.1893 21.3816ZM83.4961 21.4258C83.3753 21.8726 83.5258 22.0953 83.829 21.9785C84.1487 21.8551 84.4727 21.7113 84.7499 21.5132C85.5082 20.9704 86.0475 20.2156 86.6081 19.4851C86.6498 19.4301 86.6893 19.3156 86.6627 19.2744C86.512 19.0488 86.3767 18.7868 86.1666 18.6352C85.9143 18.4529 85.6568 18.613 85.4593 18.822C85.1582 19.1387 84.883 19.4847 84.5568 19.7732C84.0229 20.2456 83.7494 20.865 83.4961 21.4258Z" fill="var(--neutral-100, currentColor)"/>
<path d="M115.848 36.3635C116.345 35.8245 116.8 35.2394 117.347 34.7586C118.117 34.0815 118.986 33.5321 120.084 33.6349C120.67 33.6896 121.201 33.9383 121.641 34.3322C121.998 34.6516 122.314 34.9918 122.546 35.4418C122.859 36.048 123.391 36.5425 123.693 37.1528C124.179 38.138 124.892 38.9404 125.576 39.7689C125.773 40.0065 126.04 40.1868 126.283 40.3832C126.428 40.5013 126.592 40.5959 126.742 40.7095C127.164 41.0269 127.407 41.7782 127.248 42.2615C127.18 42.4704 126.805 42.659 126.532 42.6149C125.929 42.5165 125.426 42.2367 124.94 41.8613C124.222 41.3071 123.615 40.6499 123.066 39.9489C122.545 39.2837 122.137 38.5307 121.686 37.8109C121.42 37.3865 121.184 36.9435 120.906 36.5268C120.576 36.0317 120.106 35.911 119.648 36.1947C119.029 36.5783 118.364 36.9292 117.947 37.5625C117.753 37.8587 117.614 38.192 117.445 38.5045C117.113 39.1167 116.775 39.7261 116.447 40.3402C116.406 40.4161 116.41 40.5144 116.385 40.5992C116.281 40.958 116.171 41.3155 116.066 41.6742C116.041 41.7609 116.004 41.8563 116.018 41.9396C116.101 42.4079 115.953 42.8153 115.702 43.1919C115.43 43.6006 115.032 43.7263 114.643 43.4437C114.049 43.013 113.543 42.4851 113.582 41.6696C113.593 41.4474 113.702 41.2312 113.759 41.0104C114.063 39.852 114.119 38.6666 114.16 37.4772C114.178 36.9487 114.215 36.4153 114.308 35.8956C114.395 35.4143 114.705 35.3151 115.096 35.6246C115.373 35.8435 115.605 36.1187 115.849 36.3617L115.848 36.3635Z" fill="var(--neutral-100, currentColor)"/>
<path d="M94.3202 39.4806C94.5052 39.941 94.9578 39.9984 95.2924 40.1961C95.9197 40.5679 96.5956 40.858 97.2166 41.2389C97.8555 41.6304 98.4579 42.0831 99.0657 42.5224C99.7281 43.0015 100.067 43.708 100.192 44.4719C100.286 45.044 99.9825 45.5958 99.4958 45.8938C98.6294 46.4253 97.6994 46.8235 96.6591 46.9426C96.0194 47.0164 95.3896 47.022 94.7638 46.9207C94.2231 46.8326 93.7417 46.6253 93.3164 46.2165C92.9917 45.9046 92.7175 45.5801 92.5279 45.1903C92.4395 45.0083 92.4206 44.7707 92.4397 44.5645C92.4619 44.316 92.5788 44.0772 92.6148 43.8283C92.66 43.514 92.8299 43.3205 93.193 43.1622C93.4327 43.4423 93.7549 43.7105 93.9311 44.0537C94.1621 44.5034 94.5573 44.6039 94.9471 44.6116C95.8011 44.6278 96.6345 44.4619 97.4005 44.0487C97.4382 44.028 97.4615 43.98 97.5472 43.8805C97.399 43.7361 97.275 43.5478 97.1009 43.4545C96.0542 42.8975 94.9975 42.3604 93.9412 41.8215C93.1312 41.4082 92.4435 40.8568 91.9341 40.0944C91.4516 39.3723 91.6346 38.5076 92.2555 37.9076C93.0218 37.1675 93.9284 36.6739 94.876 36.2607C95.6087 35.942 96.3703 35.6023 97.2242 35.8993C97.8601 36.1201 98.352 37.0371 98.1275 37.6682C98.0278 37.9467 97.8142 38.0661 97.5213 38.1129C96.3252 38.3027 95.1972 38.84 94.3202 39.4806Z" fill="var(--neutral-100, currentColor)"/>
<path d="M79.3227 24.7939C78.5955 25.1828 78.232 25.1455 77.616 24.6431C77.2424 24.3381 76.7961 24.1242 76.5522 23.6673C76.2285 23.06 75.8557 22.4793 75.5364 21.8702C75.3334 21.4827 75.2029 21.0581 75.0159 20.662C74.9398 20.5009 74.801 20.3697 74.6909 20.2263C74.1951 20.4385 74.1665 20.9122 74.0425 21.262C73.6845 22.268 73.421 23.3072 73.1253 24.3343C73.0404 24.6275 73.0029 24.9388 72.8864 25.2179C72.678 25.7187 71.921 25.8131 71.5025 25.4846C71.0766 25.1504 70.7928 24.7528 70.6547 24.2437C70.6163 24.1002 70.5823 23.9284 70.624 23.7939C71.0862 22.3102 71.1926 20.7825 71.2342 19.2428C71.2522 18.5827 71.8221 18.2591 72.4051 18.5556C72.5144 18.6114 72.6386 18.6358 72.6874 18.6523C73.1118 18.2537 73.4889 17.8861 73.8808 17.537C74.2802 17.1819 75.0041 17.2302 75.405 17.6119C75.9395 18.1217 76.1997 18.8038 76.5407 19.4313C76.8246 19.9536 77.033 20.5172 77.2948 21.0525C77.5012 21.4722 77.718 21.8898 77.9682 22.2845C78.141 22.5571 78.3365 22.8562 78.5974 23.024C79.2751 23.4589 79.4724 24.0462 79.3211 24.7964L79.3227 24.7939Z" fill="var(--neutral-100, currentColor)"/>
<path d="M80.8767 40.9584C81.0529 40.5514 81.2993 40.2716 81.6953 40.1945C82.882 39.9651 84.0778 39.7841 85.2596 39.5317C86.2359 39.3223 87.1958 39.036 88.1641 38.7892C88.5132 38.7 88.869 38.6381 89.2181 38.5489C89.5338 38.4677 89.8412 38.3461 90.1588 38.2762C90.5034 38.2006 90.5952 38.301 90.5233 38.6427C90.4675 38.911 90.3518 39.1717 90.3301 39.441C90.2932 39.8978 89.9615 40.0524 89.6384 40.2573C88.4276 41.0265 87.0908 41.4714 85.7174 41.8302C85.0993 41.9911 84.4798 42.1496 83.8673 42.3306C83.3718 42.4771 83.1224 42.761 83.1773 43.2465C83.2534 43.9261 83.3995 44.6013 83.5607 45.2675C83.6081 45.4634 83.8191 45.6153 83.9408 45.7971C84.1655 46.1313 84.4269 46.4524 84.5879 46.8162C84.8298 47.364 84.5477 48.4446 83.701 48.3586C83.2378 48.3122 82.9239 47.9588 82.6527 47.6185C81.9896 46.7828 81.6443 45.789 81.3547 44.7811C81.1444 44.0471 80.9424 43.3035 80.8371 42.5506C80.7626 42.0197 80.8585 41.4642 80.8767 40.9584Z" fill="var(--neutral-100, currentColor)"/>
<path d="M36.7052 30.9937C36.5186 31.5433 36.2675 31.6824 35.7226 31.5383C35.1924 31.3979 34.9442 30.9879 34.7254 30.5404C34.5705 30.2214 34.3975 29.9114 34.2437 29.5917C33.9301 28.9419 33.5977 28.2999 33.3245 27.6341C33.1366 27.1769 33.0157 26.689 32.9 26.2073C32.7244 25.4754 32.557 24.7388 32.4331 23.9968C32.3895 23.7331 32.4378 23.4295 32.5267 23.1737C32.6369 22.8585 32.9691 22.7551 33.3046 22.8696C33.9161 23.0792 34.306 23.518 34.4547 24.13C34.6867 25.0837 34.8269 26.0617 35.0972 27.0037C35.2792 27.639 35.6057 28.2353 35.888 28.8396C36.1326 29.3655 36.4217 29.8715 36.6553 30.4024C36.7305 30.5741 36.6929 30.7951 36.7071 30.9942L36.7052 30.9937Z" fill="var(--neutral-100, currentColor)"/>
<path d="M30.7392 31.5239C29.8997 31.3721 29.6975 30.6333 29.5599 29.8799C29.3161 28.5441 29.2626 27.1899 29.2081 25.8355C29.1869 25.3076 29.1068 24.7832 29.0528 24.2566C29.0481 24.2102 29.0326 24.164 29.0259 24.118C28.9644 23.6809 29.0949 23.3593 29.3882 23.2281C29.6349 23.1173 30.2082 23.2845 30.4207 23.5026C30.8334 23.9258 30.9915 24.4557 31.0501 25.0139C31.2057 26.5045 31.3302 27.9979 31.4828 29.4887C31.5289 29.9396 31.6606 30.3822 31.695 30.833C31.7544 31.6074 31.5711 31.7425 30.7392 31.5239Z" fill="var(--neutral-100, currentColor)"/>
<path d="M109.223 22.4765C109.223 22.4765 107.315 24.2929 105.104 23.1444C105.318 22.1379 108.26 21.7183 109.009 21.7708C107.85 21.7673 101.67 20.4593 100.554 18.1819C101.522 17.7424 104.386 17.9488 109.226 21.1143C109.226 21.1143 106.169 19.1043 103.915 16.1559C101.662 13.2075 102.896 9.60215 102.896 9.60215C104.384 10.4964 108.148 12.9803 109.669 20.4697C109.669 20.4697 107.692 11.2465 115.926 4.50964C118.052 14.2085 110.789 20.7973 110.789 20.7973C116.223 15.4208 120.728 15.4638 122.462 15.5494C122.462 15.5494 121.481 19.2299 117.968 20.4248C114.454 21.6196 110.796 21.5878 110.796 21.5878C116.579 21.6524 119.073 23.0751 119.632 23.9788C117.438 25.25 111.575 22.8961 110.611 22.2544C111.262 22.6277 113.473 24.6138 113.09 25.5687C110.614 25.2923 110.04 22.7215 110.04 22.7215C109.723 23.0793 109.348 25.3382 109.338 25.72C109.338 25.72 108.181 26.2062 107.842 25.2654C108.425 24.6048 109.22 22.4722 109.22 22.4722L109.223 22.4765Z" fill="var(--blue-100, currentColor)"/>
</svg>
