<?xml version="1.0" encoding="UTF-8"?>
<svg id="Layer_1" data-name="Layer 1" xmlns="http://www.w3.org/2000/svg" viewBox="0 0 130 70">
  <g id="Dana_Larsen" data-name="Dana Larsen">
    <path d="M55.93,22.53h0c.07-8.06-16.15-8.37-22-7.27-2.33-.79-25.94,8.86-17.53,9.74,6.23-5.61,15-7.98,23.26-8.42,19.31,1.11,17.75,6.26,2.1,14.19-12.15,6.42-24.22,12.96-36.04,19.97-.61.37-1.68.86-.92,1.65,1.47,1.7,3.57-.9,5.13-1.44,7.41-4.62,15.06-8.86,22.7-13.07,7.37-4.5,18.71-7.83,23.3-15.33Z" fill="var(--neutral-200, currentColor)"/>
    <path d="M80.82,54.92c-24.33-8.6-49.91,20.08-36.84,1.51,5.03-7.4,9.19-15.31,11.77-23.89-.01,0-.03,0-.04-.01,1.12-3.24-3.19-3.16-2.44-.04-1.77,6.79-4.9,13.15-8.67,19.04-1.33,3.23-10.02,11.43-5.24,13.85,4.06.33,7.27-3.49,10.98-4.75,6.75-3.19,14.1-5.27,21.61-5.18,3.17.27,7.02.11,9.55,2.26.23,1.03-.5,1.11.86,1.87,3.36.41.46-4.53-1.53-4.65Z" fill="var(--neutral-200, currentColor)"/>
    <path d="M67.1,46.72c-.67,2.09,2.17,4.55,4.35,3.83,1.43-.27,2.88-.8,3.98-1.79.32-.25.44-.24.7.07.54.81,2.34,2.08,2.99.81.14-.54-.2-1.2-.71-1.45-2.03-1.01-.79-3.48-1.13-5.14-4.54-5.53-8.24-2.41-10.19,3.67h0ZM73.4,42.4c-.02.62.24,1.2.91,1.29,1.92,2.31-2.1,5.16-4.46,4.74-1.67-.93,1.77-6.5,3.55-6.03Z" fill="var(--neutral-200, currentColor)"/>
    <path d="M65.83,25.11c.86.89,3.58,2,3.96.29.14-1.05-1.21-.78-1.88-1.12-.89-.55.04-2.17-1.15-2.76-.17-1.26-.2-3-2.04-3.25-3.26.12-4.91,3.97-6.5,6.37-1.46,5.44,5.63,2.85,7.61.47ZM64.3,20.7c.3.22.61.45.92.67-.25,1.63-3.24,4.3-4.97,4.36,1.08-1.94,2.28-3.69,4.06-5.03Z" fill="var(--neutral-200, currentColor)"/>
    <path d="M103.32,37.08c-3.63,3.01-.78,8.65,3.65,8.44,1.37.19,3.24-.71,2.79-2.33-.36-.76-1.35.25-1.95.13-1.26,0-3.46-.05-3.75-1.59,10.45-2.06,5.38-10.12-.74-4.65ZM105.74,38.35c.42-.49.95-.74,1.66-.82-.44.6-1.14.53-1.66.82Z" fill="var(--neutral-200, currentColor)"/>
    <path d="M88.19,21.38c1.39,1.46,4.34,3.54,6.1,1.83.3-.3.14-.68-.27-.79-1.73-.57-3.96-1.18-4.57-3.11-.22-.7-.64-1.16-1.35-1.38-1.23-2.46-2.4-3-4.5-.79-5.69,4.91.27,10.97,4.6,4.24ZM86.66,19.27c-.14.72-3.16,3.95-3.17,2.15.46-.92,2.25-4.08,3.17-2.15Z" fill="var(--neutral-200, currentColor)"/>
    <path d="M123.69,37.15c-1.98-4.16-5.11-4.67-7.84-.79h0c-2.54-2.86-1.35,3.26-2.09,4.65-.71,1.08.9,3.46,1.94,2.18.75-2.48,1.34-5.68,3.95-7,2.03-.92,4.43,8.18,7.6,6.07.06-2.13-2.97-2.99-3.56-5.11Z" fill="var(--neutral-200, currentColor)"/>
    <path d="M94.32,39.48c1.14-1.2,5.99-1.32,2.9-3.58-1.85-.38-3.59.9-4.97,2.01-2.38,3.3,3.65,4.27,5.29,5.97-1.46,1.15-3.45.99-4.35-.72-3.01,3.62,4.13,4.91,6.3,2.73,2.76-3.17-3.53-4.75-5.18-6.41Z" fill="var(--neutral-200, currentColor)"/>
    <polygon points="79.32 24.79 79.32 24.79 79.32 24.8 79.32 24.79" fill="var(--neutral-200, currentColor)"/>
    <path d="M71.5,25.49c2.64.84,1.46-4.23,3.19-5.26,1.16,1.57,1.99,5.63,4.63,4.57.34-1.6-1.68-2.24-2.03-3.74-.83-2.2-2.42-5.49-4.61-2.4-.61-.32-1.44-.28-1.45.59.4,2.07-1.6,4.7.27,6.24Z" fill="var(--neutral-200, currentColor)"/>
    <path d="M90.16,38.28c-2.88,1.28-6.95.78-9.28,2.68-.95,1.79,3.03,11.2,3.71,5.86-.77-1.1-1.38-2.18-1.41-3.57,1.05-2.3,5.96-1.16,7.15-3.81-.02-.36.6-1.35-.17-1.17Z" fill="var(--neutral-200, currentColor)"/>
    <path d="M36.71,30.99h0c-.61-2.29-2.07-4.37-2.25-6.86-4.33-6.06-.22,10.56,2.25,6.86Z" fill="var(--neutral-200, currentColor)"/>
    <path d="M30.74,31.52c.83.22,1.02.08.96-.69-.65-2.37.04-5.21-1.27-7.33-1.81-1.21-1.34,1.27-1.21,2.33.33,1.77-.43,4.84,1.53,5.69Z" fill="var(--neutral-200, currentColor)"/>
  </g>
  <path id="Leaf" d="M109.22,22.48s-1.91,1.82-4.12.67c.21-1.01,3.16-1.43,3.91-1.37-1.16,0-7.34-1.31-8.46-3.59.97-.44,3.83-.23,8.67,2.93-2.6-1.41-8.47-7.24-6.33-11.51,1.49.89,5.25,3.38,6.77,10.87,0,0-1.98-9.22,6.26-15.96,2.13,9.7-5.14,16.29-5.14,16.29,5.43-5.38,9.94-5.33,11.67-5.25-.59,4.76-8.8,6.32-11.67,6.04,5.78.06,8.28,1.49,8.84,2.39-2.19,1.27-8.06-1.08-9.02-1.72.65.37,2.86,2.36,2.48,3.31-2.48-.28-3.05-2.85-3.05-2.85-.32.36-.69,2.62-.7,3,0,0-1.16.49-1.5-.45.58-.66,1.38-2.79,1.38-2.79h0Z" fill="var(--blue-100, currentColor)"/>
</svg>