<svg width="20" height="19" viewBox="0 0 20 19" fill="none" xmlns="http://www.w3.org/2000/svg">
<path d="M7.68849 15.9357C7.68849 15.9357 5.99655 17.5468 4.03579 16.5281C4.22503 15.6354 6.83427 15.2632 7.49852 15.3098C6.47139 15.3067 0.989203 14.1465 0 12.1266C0.858165 11.7368 3.39847 11.9199 7.69168 14.7275C7.69168 14.7275 4.98027 12.9448 2.9812 10.3296C0.982131 7.71453 2.07686 4.5168 2.07686 4.5168C3.39715 5.30998 6.73491 7.51301 8.08467 14.1557C8.08467 14.1557 6.33068 5.97528 13.6343 0C15.5194 8.60237 9.07758 14.4463 9.07758 14.4463C13.8969 9.67765 17.8929 9.71576 19.4313 9.79175C19.4313 9.79175 18.5612 13.0562 15.4448 14.1159C12.3284 15.1757 9.08356 15.1474 9.08356 15.1474C14.213 15.2048 16.4253 16.4667 16.9212 17.2682C14.9751 18.3956 9.77492 16.3079 8.91989 15.7387C9.49764 16.0698 11.4581 17.8314 11.1184 18.6783C8.92247 18.4332 8.41364 16.153 8.41364 16.153C8.13183 16.4704 7.79983 18.4739 7.79032 18.8125C7.79032 18.8125 6.76488 19.2438 6.46426 18.4093C6.98081 17.8234 7.68644 15.9319 7.68644 15.9319L7.68849 15.9357Z" fill="#5de3db"/>
</svg>
