<svg width="18" height="18" viewBox="0 0 18 18" fill="none" xmlns="http://www.w3.org/2000/svg">
<path d="M17.0575 0.443537L17.5514 0.932291C18.2302 1.6074 18.1271 2.7994 17.3204 3.6011L7.13926 13.6751L3.84149 14.8671C3.42926 15.0182 3.02415 14.8213 2.94241 14.431C2.91399 14.2904 2.9282 14.1427 2.9815 14.0091L4.21106 10.7179L14.3603 0.675607C15.1705 -0.12609 16.3787 -0.22806 17.0575 0.443537ZM6.69506 1.44566C7.15703 1.44566 7.53016 1.81486 7.53016 2.27197C7.53016 2.72908 7.15703 3.09828 6.69506 3.09828H3.34753C2.42358 3.09828 1.67376 3.8402 1.67376 4.75442V14.6877C1.67376 15.6019 2.42358 16.3439 3.34753 16.3439H13.3866C14.3105 16.3439 15.0603 15.6019 15.0603 14.6877V11.3755C15.0603 10.9183 15.4335 10.5491 15.8954 10.5491C16.3574 10.5491 16.7305 10.9183 16.7305 11.3755V14.6877C16.7305 16.5162 15.2309 18 13.383 18H3.34753C1.49964 18 0 16.5162 0 14.6877V4.75793C0 2.9295 1.49964 1.44566 3.34753 1.44566H6.69506Z" fill="var(--blue-200, currentColor)"/>
</svg>
