<svg width="32" height="32" viewBox="0 0 32 32" fill="none" xmlns="http://www.w3.org/2000/svg">
<path d="M20.2379 10.8565C19.7245 10.8565 19.3044 11.2766 19.3044 11.79C19.3044 12.3034 19.7245 12.7328 20.2379 12.7328C20.7513 12.7328 21.1807 12.3127 21.1807 11.79C21.1807 11.2672 20.7607 10.8565 20.2379 10.8565Z" fill="#67E0D9"/>
<path d="M16.0651 12.0607C13.89 12.0607 12.1258 13.825 12.1258 16C12.1258 18.175 13.89 19.9393 16.0651 19.9393C18.2401 19.9393 20.0044 18.175 20.0044 16C20.0044 13.825 18.2401 12.0607 16.0651 12.0607ZM16.0651 18.5297C14.6742 18.5297 13.5447 17.4002 13.5447 16.0093C13.5447 14.6184 14.6742 13.4889 16.0651 13.4889C17.456 13.4889 18.5855 14.6184 18.5855 16.0093C18.5855 17.4002 17.456 18.5297 16.0651 18.5297Z" fill="#67E0D9"/>
<path d="M19.1925 24H12.8075C10.1564 24 8 21.8436 8 19.1925V12.8075C8 10.1564 10.1564 8 12.8075 8H19.1925C21.8436 8 24 10.1564 24 12.8075V19.1925C24 21.8436 21.8436 24 19.1925 24ZM12.8075 9.50291C10.9871 9.50291 9.50291 10.9872 9.50291 12.8075V19.1925C9.50291 21.0128 10.9871 22.4971 12.8075 22.4971H19.1925C21.0128 22.4971 22.4971 21.0128 22.4971 19.1925V12.8075C22.4971 10.9872 21.0128 9.50291 19.1925 9.50291H12.8075Z" fill="#67E0D9"/>
</svg>
